<svg width="200" height="200" viewBox="0 0 200 200" xmlns="http://www.w3.org/2000/svg">
  <g fill="#161616" transform="rotate(90 100 100)" shape-rendering="crispEdges">
    <!-- Top rows -->
    <rect x="60" y="20" width="20" height="20"/>
    <rect x="80" y="20" width="20" height="20"/>
    <rect x="100" y="20" width="20" height="20"/>
    <rect x="120" y="20" width="20" height="20"/>
    
    <!-- Second row -->
    <rect x="40" y="40" width="20" height="20"/>
    <rect x="60" y="40" width="20" height="20"/>
    <rect x="120" y="40" width="20" height="20"/>
    <rect x="140" y="40" width="20" height="20"/>
    
    <!-- Third row -->
    <rect x="20" y="60" width="20" height="20"/>
    <rect x="40" y="60" width="20" height="20"/>
    <rect x="140" y="60" width="20" height="20"/>
    <rect x="160" y="60" width="20" height="20"/>
    
    <!-- Fourth row -->
    <rect x="20" y="80" width="20" height="20"/>
    <rect x="40" y="80" width="20" height="20"/>
    <rect x="140" y="80" width="20" height="20"/>
    <rect x="160" y="80" width="20" height="20"/>
    
    <!-- Fifth row -->
    <rect x="20" y="100" width="20" height="20"/>
    <rect x="40" y="100" width="20" height="20"/>
    <rect x="140" y="100" width="20" height="20"/>
    <rect x="160" y="100" width="20" height="20"/>
    
    <!-- Sixth row -->
    <rect x="20" y="120" width="20" height="20"/>
    <rect x="40" y="120" width="20" height="20"/>
    <rect x="140" y="120" width="20" height="20"/>
    <rect x="160" y="120" width="20" height="20"/>
    
    <!-- Seventh row -->
    <rect x="20" y="140" width="20" height="20"/>
    <rect x="40" y="140" width="20" height="20"/>
    <rect x="140" y="140" width="20" height="20"/>
    <rect x="160" y="140" width="20" height="20"/>
    
    <!-- Eighth row -->
    <rect x="40" y="160" width="20" height="20"/>
    <rect x="60" y="160" width="20" height="20"/>
    <rect x="120" y="160" width="20" height="20"/>
    <rect x="140" y="160" width="20" height="20"/>
    
    <!-- Bottom row -->
    <rect x="60" y="180" width="20" height="20"/>
    <rect x="80" y="180" width="20" height="20"/>
    <rect x="100" y="180" width="20" height="20"/>
    <rect x="120" y="180" width="20" height="20"/>
  </g>
</svg>
